<?xml version="1.0" encoding="UTF-8"?>
<svg width="1126px" height="2500px" viewBox="0 0 1126 2500" version="1.1" xmlns="http://www.w3.org/2000/svg" xmlns:xlink="http://www.w3.org/1999/xlink">
    <!-- Generator: Sketch 60 (88103) - https://sketch.com -->
    <title>gulp</title>
    <desc>Created with Sketch.</desc>
    <g id="Page-1" stroke="none" stroke-width="1" fill="none" fill-rule="evenodd">
        <g id="gulp" fill-rule="nonzero">
            <path d="M868.576875,2424.35593 L892.553191,2024.83902 L958.756453,1911.82738 C958.756453,1911.82738 808.077211,1973.46688 555.815613,1973.46688 C303.549598,1973.46688 155.154445,1912.96721 155.154445,1912.96721 L229.349813,2036.24621 L255.596965,2424.35593 C255.596965,2465.96436 392.814656,2499.69114 562.089129,2499.69114 C731.354766,2499.69114 868.576875,2465.96436 868.576875,2424.35593 M792.945668,558.66982 L843.27075,359.750777 L1121.96064,66.5036836 L1048.50749,3.94082813 L753.457863,316.322145 L695.025809,553.977938 C651.048614,552.504397 607.049702,551.772383 563.047828,551.782207 C252.305578,551.782207 0.397417969,587.196645 0.397417969,630.872684 C0.397417969,674.553141 252.305578,709.96316 563.047828,709.96316 C873.78566,709.96316 1125.6894,674.553141 1125.6894,630.872684 C1125.6894,598.709871 989.068137,571.026879 792.945668,558.66982" id="Shape" fill="#2F2F2F"></path>
            <path d="M763.672207,670.068902 C763.672207,670.068902 752.773078,672.512039 720.711879,672.648996 C688.641844,672.781535 665.871633,672.441352 656.801543,664.17975 C654.362824,661.96193 653.028598,657.557215 653.041754,654.575086 C653.068359,648.897996 657.097547,645.553594 662.231227,643.459477 L667.086574,651.076055 C664.974785,651.80502 663.76868,652.666523 663.764262,653.585461 C663.74659,657.897398 696.554426,660.848602 721.648488,660.530508 C746.746969,660.22125 777.071906,658.153641 777.098414,653.903555 C777.098414,652.617926 774.805488,651.407402 770.816062,650.453121 L775.64932,642.889559 C782.15257,644.90857 787.82966,648.809637 787.816429,655.560293 C787.754555,667.038176 773.14875,668.783273 763.672207,670.068902" id="Path" fill="#FFFFFF"></path>
            <path d="M1121.41281,67.0824375 C1128.41971,58.9887187 1117.78566,38.2861172 1097.66181,20.8483945 C1077.52913,3.41950781 1055.52764,-4.15289063 1048.50749,3.94082812 C1041.49617,12.0345469 1052.13464,32.7371484 1072.26732,50.1660352 C1092.39117,67.5993398 1114.40149,75.1805742 1121.41281,67.0824375 M855.172758,1448.49732 C848.567895,1384.94926 994.170891,1292.91414 956.803711,1289.96735 C876.361336,1294.56646 836.325703,1384.23797 795.852691,1478.15515 C781.02157,1512.57554 730.272363,1659.3493 696.987387,1641.27981 C663.711246,1623.21915 740.128852,1502.52466 761.547164,1430.84754 C736.833047,1448.97005 646.198418,1519.38805 622.840617,1453.44103 C585.287883,1485.33435 505.044316,1502.61302 514.096734,1418.83508 C494.11868,1454.22301 449.280715,1503.62916 395.46102,1483.09886 C324.782355,1456.14483 436.41559,1231.00072 464.173688,1242.35932 C491.936203,1253.7135 458.571703,1305.0017 449.832961,1324.9179 C430.614797,1368.74857 408.414504,1423.84948 423.245625,1435.12855 C448.653363,1454.45275 517.794574,1362.02442 519.332027,1359.99216 C532.263422,1342.90787 569.104863,1231.13768 598.798031,1243.97188 C628.491199,1256.80608 524.735203,1404.37949 563.529387,1433.6662 C571.353609,1439.57745 603.366211,1430.02138 622.840617,1408.95209 C635.440664,1395.32265 631.106637,1365.13467 673.108266,1264.97048 C715.109895,1164.81071 752.543344,1040.07379 781.3485,1049.57684 C810.153656,1059.07547 786.411492,1123.09625 776.077863,1146.96212 C727.586238,1258.9753 643.733191,1444.03076 683.27843,1430.02138 C722.823668,1416.01642 743.41582,1415.19468 782.139316,1369.87957 C820.862813,1324.56446 819.077953,1249.92288 844.887727,1251.50893 C870.706336,1253.0994 866.372309,1277.03154 860.112047,1295.25566 C885.515367,1266.18543 980.528203,1204.96121 1003.4663,1265.59784 C1030.6368,1337.38541 867.529816,1441.07955 908.197219,1435.79125 C947.848488,1430.63548 1012.08575,1389.9504 1039.5125,1352.95875 L1115.00675,674.243883 C1115.00675,674.243883 1039.03978,737.111578 555.740508,737.111578 C72.4368164,737.111578 4.32941016,675.551602 4.32941016,675.551602 L68.6020195,1295.05685 C102.717574,1198.09569 183.729867,1001.97322 311.426836,1008.556 C369.514289,1011.55138 447.058477,1123.40109 380.634316,1127.19171 C352.518363,1128.79102 349.664355,1071.36184 316.370543,1062.92794 C292.345629,1056.83998 258.897187,1076.37182 237.280066,1097.53389 C194.169527,1139.72549 101.449617,1306.19013 113.700645,1389.18168 C129.309328,1494.98761 259.705676,1352.41534 281.769012,1310.08678 C297.307008,1280.26991 307.804102,1191.92821 341.787117,1201.19711 C375.774551,1210.466 338.82266,1301.63521 314.188066,1382.24105 C286.51391,1472.75197 271.965539,1568.2287 237.280066,1557.24562 C202.590176,1546.27139 259.095996,1429.42495 257.050477,1408.95209 C224.445867,1439.03404 164.379164,1515.19098 87.5330156,1477.49687 L127.449363,1862.20475 C127.449363,1862.20475 233.538047,1946.02687 553.120652,1946.02687 C872.703258,1946.02687 982.719516,1863.51247 982.719516,1863.51247 L1032.28471,1417.9294 C991.732172,1457.4172 863.39018,1527.5392 855.172758,1448.49732" id="Shape" fill="#2F2F2F"></path>
        </g>
    </g>
</svg>