<?xml version="1.0" encoding="UTF-8"?>
<svg width="626px" height="430px" viewBox="0 0 626 430" version="1.1" xmlns="http://www.w3.org/2000/svg" xmlns:xlink="http://www.w3.org/1999/xlink">
    <!-- Generator: Sketch 60 (88103) - https://sketch.com -->
    <title>logo</title>
    <desc>Created with Sketch.</desc>
    <g id="logo" stroke="none" stroke-width="1" fill="none" fill-rule="evenodd">
        <path d="M141.27073,90.2231073 C152.454184,90.2231073 162.709254,96.4437183 167.876476,106.361856 L167.876476,106.361856 L278.173371,318.069374 C279.288318,320.209441 279.870498,322.586912 279.870498,325 C279.870498,333.284271 273.154769,340 264.870498,340 L264.870498,340 L217.075983,340 C206.226059,340 196.221634,334.141603 190.912669,324.67927 L190.912669,324.67927 L71.9019176,112.562742 C70.6441482,110.320981 69.983575,107.793609 69.983575,105.223107 C69.983575,96.9388361 76.6993037,90.2231073 84.983575,90.2231073 L84.983575,90.2231073 Z M326.456512,90 C337.639966,90 347.895036,96.220611 353.062258,106.138749 L353.062258,106.138749 L463.359152,317.846267 C464.4741,319.986334 465.05628,322.363804 465.05628,324.776893 C465.05628,333.061164 458.340551,339.776893 450.05628,339.776893 L450.05628,339.776893 L402.261765,339.776893 C391.411841,339.776893 381.407416,333.918495 376.09845,324.456162 L376.09845,324.456162 L257.087699,112.339635 C255.82993,110.097874 255.169356,107.570501 255.169356,105 C255.169356,96.7157288 261.885085,90 270.169356,90 L270.169356,90 Z M512.642618,90 C523.826429,90 534.081764,96.2210046 539.248823,106.13963 L539.248823,106.13963 L552.745787,132.048247 C554.883268,136.15133 555.999365,140.709509 555.999365,145.335966 C555.999365,161.219967 543.122838,174.096495 527.238837,174.096495 L527.238837,174.096495 L495.599903,174.096495 C484.762848,174.096495 474.768201,168.251865 469.454206,158.80712 L469.454206,158.80712 L443.318542,112.355313 C442.055098,110.10975 441.391391,107.576595 441.391391,105 C441.391391,96.7157288 448.10712,90 456.391391,90 L456.391391,90 Z" id="shape" fill="#000000"></path>
    </g>
</svg>