<?xml version="1.0" encoding="UTF-8"?>
<svg width="560px" height="430px" viewBox="0 0 560 430" version="1.1" xmlns="http://www.w3.org/2000/svg" xmlns:xlink="http://www.w3.org/1999/xlink">
    <!-- Generator: Sketch 60 (88103) - https://sketch.com -->
    <title>logo_v2</title>
    <desc>Created with Sketch.</desc>
    <g id="logo_v2" stroke="none" stroke-width="1" fill="none" fill-rule="evenodd">
        <path d="M145.283395,90.2231073 C156.467018,90.2231073 166.722214,96.4439053 171.889359,106.362275 L171.889359,106.362275 L282.181907,318.069584 C283.296784,320.209598 283.878925,322.586992 283.878925,325 C283.878925,333.284271 277.163196,340 268.878925,340 L268.878925,340 L221.087763,340 C210.237662,340 200.233104,334.141414 194.924207,324.678841 L194.924207,324.678841 L75.9181486,112.562528 C74.6604567,110.320819 73.9999263,107.793525 73.9999263,105.223107 C73.9999263,96.9388361 80.7156551,90.2231073 88.9999263,90.2231073 L88.9999263,90.2231073 Z M295.463406,90 C306.64703,90 316.902226,96.2207979 322.06937,106.139167 L322.06937,106.139167 L432.361919,317.846476 C433.476795,319.98649 434.058937,322.363884 434.058937,324.776893 C434.058937,333.061164 427.343208,339.776893 419.058937,339.776893 L419.058937,339.776893 L371.267774,339.776893 C360.417674,339.776893 350.413116,333.918307 345.104219,324.455734 L345.104219,324.455734 L226.09816,112.33942 C224.840468,110.097711 224.179938,107.570418 224.179938,105 C224.179938,96.7157288 230.895667,90 239.179938,90 L239.179938,90 Z M441.643896,90 C452.827877,90 463.083338,96.2211915 468.250319,106.140049 L468.250319,106.140049 L481.746547,132.048247 C483.883913,136.151267 484.999947,140.709343 484.999947,145.335691 C484.999947,161.219844 472.123297,174.096495 456.239144,174.096495 L456.239144,174.096495 L424.603863,174.096495 C413.766632,174.096495 403.77185,168.251677 398.457924,158.806691 L398.457924,158.806691 L372.323385,112.355098 C371.060019,110.109588 370.396355,107.576511 370.396355,105 C370.396355,96.7157288 377.112084,90 385.396355,90 L385.396355,90 Z" id="shape" fill="#000000"></path>
    </g>
</svg>