<?xml version="1.0" encoding="UTF-8"?>
<svg width="560px" height="430px" viewBox="0 0 560 430" version="1.1" xmlns="http://www.w3.org/2000/svg" xmlns:xlink="http://www.w3.org/1999/xlink">
    <!-- Generator: Sketch 60 (88103) - https://sketch.com -->
    <title>logo_v2_mesh1</title>
    <desc>Created with Sketch.</desc>
    <defs>
        <path d="M71.2833947,0.223107328 C82.4670182,0.223107328 92.7222142,6.44390526 97.8893587,16.3622747 L97.8893587,16.3622747 L208.181907,228.069584 C209.296784,230.209598 209.878925,232.586992 209.878925,235 C209.878925,243.284271 203.163196,250 194.878925,250 L194.878925,250 L147.087763,250 C136.237662,250 126.233104,244.141414 120.924207,234.678841 L120.924207,234.678841 L1.91814861,22.5625278 C0.66045672,20.3208186 -7.36957734e-05,17.7935253 -7.36957734e-05,15.2231073 C-7.36957734e-05,6.93883608 6.71565506,0.223107328 14.9999263,0.223107328 L14.9999263,0.223107328 Z M221.463406,4.26325641e-14 C232.64703,5.47890206e-14 242.902226,6.22079793 248.06937,16.1391674 L248.06937,16.1391674 L358.361919,227.846476 C359.476795,229.98649 360.058937,232.363884 360.058937,234.776893 C360.058937,243.061164 353.343208,249.776893 345.058937,249.776893 L345.058937,249.776893 L297.267774,249.776893 C286.417674,249.776893 276.413116,243.918307 271.104219,234.455734 L271.104219,234.455734 L152.09816,22.3394204 C150.840468,20.0977113 150.179938,17.570418 150.179938,15 C150.179938,6.71572875 156.895667,4.23780032e-14 165.179938,4.26325641e-14 L165.179938,4.26325641e-14 Z M367.643896,2.84217094e-14 C378.827877,4.05781002e-14 389.083338,6.22119153 394.250319,16.1400491 L394.250319,16.1400491 L407.746547,42.0482473 C409.883913,46.1512668 410.999947,50.7093429 410.999947,55.3356913 C410.999947,71.2198444 398.123297,84.0964946 382.239144,84.0964946 L382.239144,84.0964946 L350.603863,84.0964946 C339.766632,84.0964946 329.77185,78.2516768 324.457924,68.8066909 L324.457924,68.8066909 L298.323385,22.3550981 C297.060019,20.1095878 296.396355,17.5765114 296.396355,15 C296.396355,6.71572875 303.112084,2.99435054e-14 311.396355,2.84217094e-14 L311.396355,2.84217094e-14 Z" id="path-1"></path>
        <linearGradient x1="0%" y1="20.5197704%" x2="100%" y2="79.4802296%" id="linearGradient-3">
            <stop stop-color="#FF00F4" offset="0%"></stop>
            <stop stop-color="#00D7FF" offset="100%"></stop>
        </linearGradient>
        <radialGradient cx="45.5618776%" cy="123.966673%" fx="45.5618776%" fy="123.966673%" r="95.0787329%" gradientTransform="translate(0.455619,1.239667),scale(0.767857,1.000000),rotate(-78.649699),translate(-0.455619,-1.239667)" id="radialGradient-4">
            <stop stop-color="#4BFF00" offset="0%"></stop>
            <stop stop-color="#17FF00" stop-opacity="0" offset="100%"></stop>
        </radialGradient>
        <rect id="path-5" x="0" y="0" width="560" height="430"></rect>
    </defs>
    <g id="logo_v2_mesh1" stroke="none" stroke-width="1" fill="none" fill-rule="evenodd">
        <g id="logo" transform="translate(74.000000, 90.000000)">
            <mask id="mask-2" fill="white">
                <use xlink:href="#path-1"></use>
            </mask>
            <use id="Mask" fill="#000000" xlink:href="#path-1"></use>
            <g id="gradients/mesh-1" mask="url(#mask-2)">
                <g transform="translate(-74.000000, -89.888446)" id="Rectangle">
                    <g>
                        <use fill="url(#linearGradient-3)" xlink:href="#path-5"></use>
                        <use fill="url(#radialGradient-4)" xlink:href="#path-5"></use>
                    </g>
                </g>
            </g>
        </g>
    </g>
</svg>