<?xml version="1.0" encoding="UTF-8"?>
<svg width="25px" height="25px" viewBox="0 0 25 25" version="1.1" xmlns="http://www.w3.org/2000/svg" xmlns:xlink="http://www.w3.org/1999/xlink">
    <!-- Generator: Sketch 60 (88103) - https://sketch.com -->
    <title>github</title>
    <desc>Created with Sketch.</desc>
    <defs>
        <path d="M8.36189516,19.9294355 C8.36189516,20.0302419 8.24596774,20.1108871 8.09979839,20.1108871 C7.93346774,20.1260081 7.81754032,20.0453629 7.81754032,19.9294355 C7.81754032,19.828629 7.93346774,19.7479839 8.0796371,19.7479839 C8.23084677,19.7328629 8.36189516,19.8135081 8.36189516,19.9294355 Z M6.79435484,19.702621 C6.75907258,19.8034274 6.85987903,19.9193548 7.01108871,19.9495968 C7.1421371,20 7.29334677,19.9495968 7.32358871,19.8487903 C7.35383065,19.7479839 7.25806452,19.6320565 7.10685484,19.5866935 C6.97580645,19.5514113 6.8296371,19.6018145 6.79435484,19.702621 Z M9.02217742,19.6169355 C8.87600806,19.6522177 8.77520161,19.7479839 8.79032258,19.8639113 C8.80544355,19.9647177 8.93649194,20.0302419 9.08770161,19.9949597 C9.23387097,19.9596774 9.33467742,19.8639113 9.31955645,19.7631048 C9.30443548,19.6673387 9.16834677,19.6018145 9.02217742,19.6169355 Z M12.3387097,0.302419355 C5.34778226,0.302419355 0,5.60987903 0,12.6008065 C0,18.1905242 3.51814516,22.9737903 8.54334677,24.6572581 C9.18850806,24.7731855 9.41532258,24.375 9.41532258,24.047379 C9.41532258,23.734879 9.40020161,22.0110887 9.40020161,20.952621 C9.40020161,20.952621 5.87197581,21.7086694 5.13104839,19.4506048 C5.13104839,19.4506048 4.55645161,17.983871 3.72983871,17.6058468 C3.72983871,17.6058468 2.57560484,16.8145161 3.81048387,16.8296371 C3.81048387,16.8296371 5.06552419,16.9304435 5.75604839,18.1300403 C6.85987903,20.0756048 8.70967742,19.516129 9.43044355,19.1834677 C9.54637097,18.3770161 9.87399194,17.8175403 10.2368952,17.484879 C7.41935484,17.172379 4.5766129,16.7641129 4.5766129,11.9153226 C4.5766129,10.5292339 4.95967742,9.83366935 5.76612903,8.94657258 C5.63508065,8.61895161 5.20665323,7.26814516 5.89717742,5.52419355 C6.95060484,5.19657258 9.375,6.88508065 9.375,6.88508065 C10.3830645,6.60282258 11.4667339,6.45665323 12.5403226,6.45665323 C13.6139113,6.45665323 14.6975806,6.60282258 15.7056452,6.88508065 C15.7056452,6.88508065 18.1300403,5.19153226 19.1834677,5.52419355 C19.8739919,7.27318548 19.4455645,8.61895161 19.3145161,8.94657258 C20.1209677,9.83870968 20.6149194,10.5342742 20.6149194,11.9153226 C20.6149194,16.7792339 17.6461694,17.1673387 14.828629,17.484879 C15.2923387,17.8830645 15.6854839,18.6391129 15.6854839,19.8235887 C15.6854839,21.5221774 15.6703629,23.6239919 15.6703629,24.0372984 C15.6703629,24.3649194 15.9022177,24.7631048 16.5423387,24.6471774 C21.5826613,22.9737903 25,18.1905242 25,12.6008065 C25,5.60987903 19.3296371,0.302419355 12.3387097,0.302419355 Z M4.89919355,17.6864919 C4.83366935,17.7368952 4.84879032,17.8528226 4.93447581,17.9485887 C5.01512097,18.0292339 5.13104839,18.0645161 5.19657258,17.9989919 C5.26209677,17.9485887 5.24697581,17.8326613 5.16129032,17.7368952 C5.08064516,17.65625 4.96471774,17.6209677 4.89919355,17.6864919 Z M4.35483871,17.2782258 C4.31955645,17.34375 4.36995968,17.4243952 4.47076613,17.4747984 C4.55141129,17.5252016 4.65221774,17.5100806 4.6875,17.4395161 C4.72278226,17.3739919 4.67237903,17.2933468 4.57157258,17.2429435 C4.47076613,17.2127016 4.39012097,17.2278226 4.35483871,17.2782258 Z M5.98790323,19.0725806 C5.90725806,19.1381048 5.9375,19.2893145 6.05342742,19.3850806 C6.16935484,19.5010081 6.31552419,19.516129 6.38104839,19.4354839 C6.44657258,19.3699597 6.41633065,19.21875 6.31552419,19.1229839 C6.2046371,19.0070565 6.05342742,18.9919355 5.98790323,19.0725806 Z M5.41330645,18.3316532 C5.33266129,18.3820565 5.33266129,18.5131048 5.41330645,18.6290323 C5.49395161,18.7449597 5.63004032,18.7953629 5.69556452,18.7449597 C5.77620968,18.6794355 5.77620968,18.5483871 5.69556452,18.4324597 C5.625,18.3165323 5.49395161,18.266129 5.41330645,18.3316532 Z" id="path-1"></path>
    </defs>
    <g id="github" stroke="none" stroke-width="1" fill="none" fill-rule="evenodd">
        <g id="Brands/github">
            <mask id="mask-2" fill="white">
                <use xlink:href="#path-1"></use>
            </mask>
            <g id="Mask"></g>
            <g id="Color/Black" mask="url(#mask-2)" fill="#242A42" fill-rule="evenodd">
                <rect id="Black" x="0" y="0" width="25" height="25"></rect>
            </g>
        </g>
    </g>
</svg>