<?xml version="1.0" encoding="UTF-8"?>
<svg width="667px" height="1000px" viewBox="0 0 667 1000" version="1.1" xmlns="http://www.w3.org/2000/svg" xmlns:xlink="http://www.w3.org/1999/xlink">
    <!-- Generator: Sketch 60 (88103) - https://sketch.com -->
    <title>figma-1</title>
    <desc>Created with Sketch.</desc>
    <g id="Page-1" stroke="none" stroke-width="1" fill="none" fill-rule="evenodd">
        <g id="figma-1" fill-rule="nonzero">
            <path d="M166.633347,999.80008 C258.614954,999.80008 333.266693,925.148341 333.266693,833.166733 L333.266693,666.533387 L166.633347,666.533387 C74.6517393,666.533387 0,741.185126 0,833.166733 C0,925.148341 74.6517393,999.80008 166.633347,999.80008 Z" id="path0_fill" fill="#3C3C3C"></path>
            <path d="M0,499.90004 C0,407.918433 74.6517393,333.266693 166.633347,333.266693 L333.266693,333.266693 L333.266693,666.533387 L166.633347,666.533387 C74.6517393,666.533387 0,591.881647 0,499.90004 Z" id="path1_fill" fill="#555555"></path>
            <path d="M0,166.633347 C0,74.6517393 74.6517393,0 166.633347,0 L333.266693,0 L333.266693,333.266693 L166.633347,333.266693 C74.6517393,333.266693 0,258.614954 0,166.633347 Z" id="path1_fill_1_" fill="#696969"></path>
            <path d="M333.266693,0 L499.90004,0 C591.881647,0 666.533387,74.6517393 666.533387,166.633347 C666.533387,258.614954 591.881647,333.266693 499.90004,333.266693 L333.266693,333.266693 L333.266693,0 Z" id="path2_fill" fill="#999999"></path>
            <path d="M666.533387,499.90004 C666.533387,591.881647 591.881647,666.533387 499.90004,666.533387 C407.918433,666.533387 333.266693,591.881647 333.266693,499.90004 C333.266693,407.918433 407.918433,333.266693 499.90004,333.266693 C591.881647,333.266693 666.533387,407.918433 666.533387,499.90004 Z" id="path3_fill" fill="#808080"></path>
        </g>
    </g>
</svg>