<?xml version="1.0" encoding="UTF-8"?>
<svg width="364px" height="512px" viewBox="0 0 364 512" version="1.1" xmlns="http://www.w3.org/2000/svg" xmlns:xlink="http://www.w3.org/1999/xlink">
    <!-- Generator: Sketch 60 (88103) - https://sketch.com -->
    <title>html5</title>
    <desc>Created with Sketch.</desc>
    <g id="Page-1" stroke="none" stroke-width="1" fill="none" fill-rule="evenodd">
        <g id="html5" fill-rule="nonzero">
            <polygon id="Path" fill="#000000" points="33.644 470.877 0.633 100.62 363.367 100.62 330.321 470.819 181.778 512"></polygon>
            <polygon id="Path" fill="#222222" points="182 480.523 302.03 447.246 330.27 130.894 182 130.894"></polygon>
            <g id="Group" transform="translate(68.000000, 176.000000)" fill="#EBEBEB">
                <polygon id="Path" points="114 92.217 53.91 92.217 49.76 45.716 114 45.716 114 0.305 113.843 0.305 0.132 0.305 1.219 12.488 12.38 137.627 114 137.627"></polygon>
                <polygon id="Path" points="114 210.153 113.801 210.206 63.227 196.55 59.994 160.333 35.419 160.333 14.409 160.333 20.771 231.634 113.791 257.457 114 257.399"></polygon>
            </g>
            <g id="Group" transform="translate(34.000000, 0.000000)" fill="#000000">
                <polygon id="Path" points="0.382 0 23.459 0 23.459 22.8 44.569 22.8 44.569 0 67.647 0 67.647 69.044 44.57 69.044 44.57 45.924 23.46 45.924 23.46 69.044 0.383 69.044 0.383 0"></polygon>
                <polygon id="Path" points="97.994 22.896 77.678 22.896 77.678 0 141.398 0 141.398 22.896 121.073 22.896 121.073 69.044 97.995 69.044 97.995 22.896"></polygon>
                <polygon id="Path" points="151.511 0 175.574 0 190.376 24.26 205.163 0 229.235 0 229.235 69.044 206.253 69.044 206.253 34.822 190.376 59.371 189.979 59.371 174.091 34.822 174.091 69.044 151.511 69.044 151.511 0"></polygon>
                <polygon id="Path" points="240.72 0 263.804 0 263.804 46.222 296.257 46.222 296.257 69.044 240.72 69.044"></polygon>
            </g>
            <g id="Group" transform="translate(181.000000, 176.000000)" fill="#FFFFFF">
                <polygon id="Path" points="0.843 92.217 0.843 137.627 56.761 137.627 51.49 196.521 0.843 210.191 0.843 257.435 93.937 231.634 94.62 223.962 105.291 104.411 106.399 92.217 94.162 92.217"></polygon>
                <polygon id="Path" points="0.843 0.305 0.843 28.509 0.843 45.605 0.843 45.716 110.385 45.716 110.385 45.716 110.531 45.716 111.442 35.509 113.511 12.488 114.597 0.305"></polygon>
            </g>
        </g>
    </g>
</svg>