<?xml version="1.0" encoding="UTF-8"?>
<svg width="440px" height="435px" viewBox="0 0 440 435" version="1.1" xmlns="http://www.w3.org/2000/svg" xmlns:xlink="http://www.w3.org/1999/xlink">
    <!-- Generator: Sketch 60 (88103) - https://sketch.com -->
    <title>Group</title>
    <desc>Created with Sketch.</desc>
    <g id="Page-1" stroke="none" stroke-width="1" fill="none" fill-rule="evenodd">
        <g id="jquery-1" transform="translate(0.000000, -1.000000)" fill="#000000" fill-rule="nonzero">
            <g id="Group" transform="translate(0.000000, 0.945312)">
                <path d="M429.144531,322.53125 L427.181641,327.619141 C393.734375,392.755859 334.461914,432.716797 249.920898,434.479492 C210.399414,435.294922 172.743164,425.15332 148.143555,414.12793 C95.0576172,390.275391 50.4042969,346.041992 26.0195312,298.78125 C-8.9609375,231.032227 -15.2695312,136.789062 57.4648438,66.3984375 C58.5878906,66.3984375 48.6416016,81.6621094 49.7646484,81.6621094 L47.7626953,88.1757812 C-4.64941406,252.267578 156.830078,392.892578 313.802734,376.808594 C351.527344,372.941406 399.632812,352.282227 429.144531,322.53125" id="Path"></path>
                <path d="M334.154297,254.679688 C373.646484,254.948242 414.896484,236.491211 439.325195,210.578125 C417.953125,264.826172 356.073242,299.694336 273.094727,288.605469 C203.612305,279.308594 137.425781,209.391602 130.609375,139.333008 C125.624023,88.3466797 143.392578,57.9169922 172.674805,21.0029297 C162.499023,40.3095703 158.695313,55.1972656 157.748047,64.6943359 C146.625,174.987305 245.853516,254.098633 334.154297,254.679688" id="Path"></path>
                <path d="M435.355469,117.6875 C429.217773,131.769531 393.871094,158.361328 378.260742,161.686523 C316.449219,174.855469 276.864258,145.543945 256.126953,112.189453 C253.045898,107.208984 247.347656,93.6054687 246.327148,90.1435547 C238.285156,62.7998047 241.981445,21.4423828 265.970703,0.0361328125 C258.744141,20.3925781 257.689453,44.0351562 261.493164,59.40625 C263.797852,68.6982422 270.819336,84.9238281 277.845703,95.1289062 C290.628906,113.717773 298.739258,118.234375 315.160156,128.107422 C322.557617,132.550781 330.492188,136.115234 333.919922,137.091797 C349.491211,141.676758 382.367188,153.751953 435.360352,117.6875" id="Path"></path>
            </g>
        </g>
    </g>
</svg>