<?xml version="1.0" encoding="UTF-8"?>
<svg width="2500px" height="1071px" viewBox="0 0 2500 1071" version="1.1" xmlns="http://www.w3.org/2000/svg" xmlns:xlink="http://www.w3.org/1999/xlink">
    <!-- Generator: Sketch 60 (88103) - https://sketch.com -->
    <title>less</title>
    <desc>Created with Sketch.</desc>
    <defs>
        <linearGradient x1="50%" y1="0%" x2="50%" y2="100%" id="linearGradient-1">
            <stop stop-color="#2E4F82" offset="0%"></stop>
            <stop stop-color="#182E4D" offset="100%"></stop>
        </linearGradient>
        <linearGradient x1="50%" y1="0%" x2="50%" y2="100%" id="linearGradient-2">
            <stop stop-color="#6F6F6F" offset="0%"></stop>
            <stop stop-color="#000000" offset="100%"></stop>
        </linearGradient>
        <polyline id="path-3" points="0.5859375 0.84375 2500 0.84375 2500 1070.21875 0.5859375 1070.21875"></polyline>
        <polyline id="path-5" points="0.5859375 0.84375 2500 0.84375 2500 1070.21875 0.5859375 1070.21875"></polyline>
    </defs>
    <g id="Page-1" stroke="none" stroke-width="1" fill="none" fill-rule="evenodd">
        <g id="less">
            <g id="a-link" transform="translate(158.250000, 3.000000)" fill="url(#linearGradient-2)" fill-rule="nonzero">
                <path d="M2187.80469,859.582031 C2187.80469,972.511719 2093.19531,1064.9043 1977.56055,1064.9043 L210.402344,1064.9043 C94.7675781,1064.9043 0.158203125,972.511719 0.158203125,859.582031 L0.158203125,205.705078 C0.158203125,92.7851562 94.7675781,0.3828125 210.402344,0.3828125 L1977.56055,0.3828125 C2093.19531,0.3828125 2187.80469,92.7851562 2187.80469,205.705078 L2187.80469,859.582031" id="a"></path>
            </g>
            <g id="c-link">
                <polyline id="c" points="0.5859375 0.84375 2500 0.84375 2500 1070.21875 0.5859375 1070.21875"></polyline>
            </g>
            <g id="Clipped">
                <mask id="mask-4" fill="white">
                    <use xlink:href="#path-3"></use>
                </mask>
                <g id="c"></g>
                <path d="M2393.27148,390.824219 C2393.27148,310.775391 2405.58594,263.568359 2405.58594,177.367188 C2405.58594,43.9492187 2356.31836,0.84375 2247.53906,0.84375 L2167.49023,0.84375 L2167.49023,95.2578125 L2192.11914,95.2578125 C2247.53906,95.2578125 2259.85352,113.734375 2259.85352,181.46875 C2259.85352,245.091797 2253.69141,308.724609 2253.69141,382.621094 C2253.69141,477.035156 2284.48242,513.978516 2346.05469,528.34375 L2346.05469,534.505859 C2284.48242,548.871094 2253.69141,585.824219 2253.69141,680.238281 C2253.69141,754.125 2259.85352,813.65625 2259.85352,881.390625 C2259.85352,951.175781 2245.48828,969.642578 2192.11914,969.642578 L2192.11914,971.693359 L2167.49023,971.693359 L2167.49023,1070.21875 L2247.53906,1070.21875 C2356.31836,1070.21875 2405.58594,1027.11328 2405.58594,893.705078 C2405.58594,805.443359 2393.27148,760.287109 2393.27148,680.238281 C2393.27148,637.132813 2419.95117,591.976562 2500,587.875 L2500,481.136719 C2419.95117,479.085938 2393.27148,433.929688 2393.27148,390.824219 M1483.99414,516.029297 C1420.36133,491.400391 1362.89062,477.035156 1362.89062,435.980469 C1362.89062,405.199219 1387.51953,386.722656 1432.67578,386.722656 C1477.83203,386.722656 1518.88672,405.199219 1564.04297,438.041016 L1646.14258,329.251953 C1594.82422,290.257813 1525.03906,249.203125 1430.625,249.203125 C1291.05469,249.203125 1196.63086,329.251953 1196.63086,442.142578 C1196.63086,542.71875 1284.89258,594.027344 1358.78906,622.767578 C1422.41211,647.396484 1483.99414,667.923828 1483.99414,708.96875 C1483.99414,739.759766 1459.35547,760.287109 1403.94531,760.287109 C1352.62695,760.287109 1301.31836,739.759766 1245.89844,696.654297 L1165.84961,815.707031 C1227.42188,867.015625 1321.83594,901.908203 1399.83398,901.908203 C1564.04297,901.908203 1652.29492,815.707031 1652.29492,702.816406 C1652.29492,589.925781 1564.04297,542.71875 1483.99414,516.029297 M1980.70313,516.029297 C1919.13086,491.400391 1861.66016,477.035156 1861.66016,435.980469 C1861.66016,405.199219 1886.28906,386.722656 1931.44531,386.722656 C1976.60156,386.722656 2017.65625,405.199219 2062.8125,438.041016 L2144.91211,329.251953 C2093.59375,290.257813 2023.80859,249.203125 1929.39453,249.203125 C1789.81445,249.203125 1695.40039,329.251953 1695.40039,442.142578 C1695.40039,542.71875 1783.66211,594.027344 1857.54883,622.767578 C1921.18164,647.396484 1982.75391,667.923828 1982.75391,708.96875 C1982.75391,739.759766 1958.125,760.287109 1902.70508,760.287109 C1851.39648,760.287109 1800.07813,739.759766 1744.66797,696.654297 L1662.55859,815.707031 C1724.14063,867.015625 1818.55469,901.908203 1896.55273,901.908203 C2060.75195,901.908203 2149.01367,815.707031 2149.01367,702.816406 C2149.01367,589.925781 2060.75195,542.71875 1980.70313,516.029297 M761.494141,505.765625 C773.808594,423.666016 823.066406,384.671875 880.537109,384.671875 C954.433594,384.671875 983.173828,435.980469 983.173828,505.765625 L761.494141,505.765625 L761.494141,505.765625 Z M1139.16016,542.71875 C1141.21094,376.458984 1050.89844,247.152344 878.486328,247.152344 C728.652344,247.152344 584.980469,372.357422 589.082031,569.398438 C589.082031,772.601563 722.5,891.644531 899.013672,891.644531 C972.910156,891.644531 1055.00977,864.964844 1118.63281,821.859375 L1057.06055,713.080078 C1011.9043,739.759766 968.798828,752.074219 923.642578,752.074219 C841.542969,752.074219 777.910156,713.080078 761.494141,618.65625 L1133.00781,618.65625 C1135.05859,604.291016 1139.16016,575.560547 1139.16016,542.71875 L1139.16016,542.71875 Z" id="Shape" fill="#FAF9F8" fill-rule="nonzero" mask="url(#mask-4)"></path>
            </g>
            <g id="Clipped">
                <mask id="mask-6" fill="white">
                    <use xlink:href="#path-5"></use>
                </mask>
                <g id="c"></g>
                <path d="M578.818359,747.972656 C564.453125,747.972656 545.976562,735.658203 545.976562,696.654297 L545.976562,0.84375 L254.511719,0.84375 C143.681641,0.84375 94.4140625,43.9492188 94.4140625,177.367188 C94.4140625,265.619141 106.728516,314.886719 106.728516,390.824219 C106.728516,433.929688 80.0488281,479.085938 0,483.1875 L0,589.925781 C80.0488281,591.976562 106.728516,637.132813 106.728516,680.238281 C106.728516,756.185547 94.4140625,801.332031 94.4140625,889.59375 C94.4140625,1023.01172 143.681641,1066.11719 252.460938,1066.11719 L332.509766,1066.11719 L332.509766,971.693359 L307.880859,971.693359 C256.572266,971.693359 240.146484,951.175781 240.146484,883.441406 C240.146484,815.707031 246.308594,758.236328 246.308594,682.289063 C246.308594,587.875 215.517578,550.921875 153.935547,536.556641 L153.935547,530.404297 C215.517578,516.029297 246.308594,479.085938 246.308594,384.671875 C246.308594,310.775391 240.146484,251.253906 240.146484,183.519531 C240.146484,115.785156 254.511719,97.3183594 307.880859,97.3183594 L363.300781,97.3183594 L363.300781,686.390625 C363.300781,811.595703 406.40625,893.705078 531.611328,893.705078 C570.605469,893.705078 601.396484,887.542969 623.974609,879.330078 L603.447266,745.921875 C591.132812,747.972656 584.980469,747.972656 578.818359,747.972656" id="Path" fill="#FAF9F8" fill-rule="nonzero" mask="url(#mask-6)"></path>
            </g>
        </g>
    </g>
</svg>