<?xml version="1.0" encoding="UTF-8"?>
<svg width="626px" height="430px" viewBox="0 0 626 430" version="1.1" xmlns="http://www.w3.org/2000/svg" xmlns:xlink="http://www.w3.org/1999/xlink">
    <!-- Generator: Sketch 60 (88103) - https://sketch.com -->
    <title>logo-white</title>
    <desc>Created with Sketch.</desc>
    <defs>
        <path d="M71.2707305,0.223107328 C82.4541842,0.223107328 92.7092541,6.44371829 97.8764762,16.3618559 L97.8764762,16.3618559 L208.173371,228.069374 C209.288318,230.209441 209.870498,232.586912 209.870498,235 C209.870498,243.284271 203.154769,250 194.870498,250 L194.870498,250 L147.075983,250 C136.226059,250 126.221634,244.141603 120.912669,234.67927 L120.912669,234.67927 L1.90191759,22.5627422 C0.64414818,20.3209811 -0.0164250391,17.7936086 -0.0164250391,15.2231073 C-0.0164250391,6.93883608 6.69930371,0.223107328 14.983575,0.223107328 L14.983575,0.223107328 Z M256.456512,0 C267.639966,-9.15979449e-15 277.895036,6.22061096 283.062258,16.1387486 L283.062258,16.1387486 L393.359152,227.846267 C394.4741,229.986334 395.05628,232.363804 395.05628,234.776893 C395.05628,243.061164 388.340551,249.776893 380.05628,249.776893 L380.05628,249.776893 L332.261765,249.776893 C321.411841,249.776893 311.407416,243.918495 306.09845,234.456162 L306.09845,234.456162 L187.087699,22.3396349 C185.82993,20.0978737 185.169356,17.5705013 185.169356,15 C185.169356,6.71572875 191.885085,-5.58363142e-15 200.169356,0 L200.169356,0 Z M442.642618,0 C453.826429,8.60370827e-15 464.081764,6.22100457 469.248823,16.1396303 L469.248823,16.1396303 L482.745787,42.0482473 C484.883268,46.1513298 485.999365,50.7095086 485.999365,55.335966 C485.999365,71.2199673 473.122838,84.0964946 457.238837,84.0964946 L457.238837,84.0964946 L425.599903,84.0964946 C414.762848,84.0964946 404.768201,78.2518652 399.454206,68.8071201 L399.454206,68.8071201 L373.318542,22.3553128 C372.055098,20.1097504 371.391391,17.5765949 371.391391,15 C371.391391,6.71572875 378.10712,8.6272233e-15 386.391391,0 L386.391391,0 Z" id="path-1"></path>
    </defs>
    <g id="logo-white" stroke="none" stroke-width="1" fill="none" fill-rule="evenodd">
        <g id="logo" transform="translate(70.000000, 90.000000)">
            <mask id="mask-2" fill="white">
                <use xlink:href="#path-1"></use>
            </mask>
            <use id="Mask" fill="#000000" xlink:href="#path-1"></use>
            <rect id="Rectangle" stroke="#979797" fill="#FFFFFF" mask="url(#mask-2)" x="-70" y="-90" width="626" height="430"></rect>
        </g>
    </g>
</svg>