<?xml version="1.0" encoding="UTF-8"?>
<svg width="626px" height="430px" viewBox="0 0 626 430" version="1.1" xmlns="http://www.w3.org/2000/svg" xmlns:xlink="http://www.w3.org/1999/xlink">
    <!-- Generator: Sketch 60 (88103) - https://sketch.com -->
    <title>logo-mesh2</title>
    <desc>Created with Sketch.</desc>
    <defs>
        <path d="M71.2707305,1.11155366 C82.4541842,1.11155366 92.7092541,7.33216463 97.8764762,17.2503022 L97.8764762,17.2503022 L208.173371,228.957821 C209.288318,231.097888 209.870498,233.475358 209.870498,235.888446 C209.870498,244.172718 203.154769,250.888446 194.870498,250.888446 L194.870498,250.888446 L147.075983,250.888446 C136.226059,250.888446 126.221634,245.030049 120.912669,235.567716 L120.912669,235.567716 L1.90191759,23.4511886 C0.64414818,21.2094274 -0.0164250391,18.682055 -0.0164250391,16.1115537 C-0.0164250391,7.82728242 6.69930371,1.11155366 14.983575,1.11155366 L14.983575,1.11155366 Z M256.456512,0.888446336 C267.639966,0.888446336 277.895036,7.1090573 283.062258,17.0271949 L283.062258,17.0271949 L393.359152,228.734713 C394.4741,230.87478 395.05628,233.252251 395.05628,235.665339 C395.05628,243.94961 388.340551,250.665339 380.05628,250.665339 L380.05628,250.665339 L332.261765,250.665339 C321.411841,250.665339 311.407416,244.806942 306.09845,235.344609 L306.09845,235.344609 L187.087699,23.2280812 C185.82993,20.9863201 185.169356,18.4589477 185.169356,15.8884463 C185.169356,7.60417509 191.885085,0.888446336 200.169356,0.888446336 L200.169356,0.888446336 Z M442.642618,0.888446336 C453.826429,0.888446336 464.081764,7.1094509 469.248823,17.0280766 L469.248823,17.0280766 L482.745787,42.9366937 C484.883268,47.0397761 485.999365,51.5979549 485.999365,56.2244123 C485.999365,72.1084137 473.122838,84.984941 457.238837,84.984941 L457.238837,84.984941 L425.599903,84.984941 C414.762848,84.984941 404.768201,79.1403116 399.454206,69.6955665 L399.454206,69.6955665 L373.318542,23.2437591 C372.055098,20.9981967 371.391391,18.4650412 371.391391,15.8884463 C371.391391,7.60417509 378.10712,0.888446336 386.391391,0.888446336 L386.391391,0.888446336 Z" id="path-1"></path>
        <linearGradient x1="100%" y1="63.2305374%" x2="0%" y2="36.7694626%" id="linearGradient-3">
            <stop stop-color="#FF00F4" offset="0%"></stop>
            <stop stop-color="#00D7FF" offset="100%"></stop>
        </linearGradient>
    </defs>
    <g id="logo-mesh2" stroke="none" stroke-width="1" fill="none" fill-rule="evenodd">
        <g id="gradients/mesh-2" transform="translate(70.000000, 89.111554)">
            <mask id="mask-2" fill="white">
                <use xlink:href="#path-1"></use>
            </mask>
            <use id="Mask" fill="#000000" xlink:href="#path-1"></use>
            <g mask="url(#mask-2)" fill="url(#linearGradient-3)" id="Rectangle">
                <g transform="translate(0.000000, 1.000000)">
                    <rect x="0" y="0" width="486" height="250"></rect>
                </g>
            </g>
        </g>
    </g>
</svg>