<?xml version="1.0" encoding="UTF-8"?>
<svg width="500px" height="488px" viewBox="0 0 500 488" version="1.1" xmlns="http://www.w3.org/2000/svg" xmlns:xlink="http://www.w3.org/1999/xlink">
    <!-- Generator: Sketch 60 (88103) - https://sketch.com -->
    <title>photoshop</title>
    <desc>Created with Sketch.</desc>
    <defs>
        <radialGradient cx="32.9589462%" cy="22.4357674%" fx="32.9589462%" fy="22.4357674%" r="78.1232923%" gradientTransform="translate(0.329589,0.224358),scale(0.972678,1.000000),translate(-0.329589,-0.224358)" id="radialGradient-1">
            <stop stop-color="#000000" stop-opacity="0.98" offset="0%"></stop>
            <stop stop-color="#0C0824" offset="100%"></stop>
        </radialGradient>
    </defs>
    <g id="Page-1" stroke="none" stroke-width="1" fill="none" fill-rule="evenodd">
        <g id="photoshop" fill-rule="nonzero">
            <polygon id="Path" fill="url(#radialGradient-1)" points="21.4 21.3 478.9 21.3 478.9 466.3 21.4 466.3"></polygon>
            <path d="M21.4,21.3 L478.9,21.3 L478.9,466.3 L21.4,466.3 L21.4,21.3 Z M0.6,487.1 L499.6,487.1 L499.6,0.5 L0.6,0.5 L0.6,487.1 Z M337.1,200.2 C320.7,200.2 315.1,208.5 315.1,215.4 C315.1,222.9 318.8,228.1 340.9,239.5 C373.5,255.3 383.7,270.5 383.7,292.7 C383.7,326 358.3,343.9 324,343.9 C305.9,343.9 290.3,340.2 281.4,335 C279.9,334.4 279.7,333.3 279.7,331.7 L279.7,301 C279.7,298.9 280.7,298.3 282.2,299.3 C295.3,307.8 310.3,311.6 324,311.6 C340.4,311.6 347.3,304.7 347.3,295.4 C347.3,287.9 342.5,281.3 321.5,270.4 C292,256.3 279.7,242 279.7,218 C279.7,191.2 300.7,168.9 337.1,168.9 C355,168.9 367.5,171.6 374.3,174.7 C376,175.7 376.4,177.4 376.4,178.9 L376.4,207.4 C376.4,209.1 375.4,210.1 373.3,209.5 C364.1,203.7 350.6,200.2 337.1,200.2 L337.1,200.2 Z M158.3,224.9 C163.1,225.3 166.8,225.3 175.1,225.3 C199.4,225.3 222.3,216.8 222.3,183.7 C222.3,157.3 205.9,144 178.2,144 C169.9,144 162,144.4 158.2,144.6 L158.3,224.9 L158.3,224.9 Z M121.2,114.5 C121.2,113 124.1,112 125.8,112 C139.1,111.4 158.9,111 179.4,111 C237,111 259.5,142.6 259.5,182.9 C259.5,235.7 221.2,258.4 174.2,258.4 C166.3,258.4 163.6,258 158,258 L158,337.8 C158,339.5 157.4,340.3 155.5,340.3 L123.7,340.3 C122,340.3 121.2,339.7 121.2,337.8 L121.2,114.5 L121.2,114.5 Z" id="Shape" fill="#989898"></path>
        </g>
    </g>
</svg>