<?xml version="1.0" encoding="UTF-8"?>
<svg width="2501px" height="1874px" viewBox="0 0 2501 1874" version="1.1" xmlns="http://www.w3.org/2000/svg" xmlns:xlink="http://www.w3.org/1999/xlink">
    <!-- Generator: Sketch 60 (88103) - https://sketch.com -->
    <title>sass</title>
    <desc>Created with Sketch.</desc>
    <g id="Page-1" stroke="none" stroke-width="1" fill="none" fill-rule="evenodd">
        <g id="sass" fill="#2F2F2F" fill-rule="nonzero">
            <path d="M2152.25,1076.14844 C2064.84766,1076.6416 1989.16406,1097.63281 1925.6875,1128.8877 C1902.25,1082.50098 1878.8125,1041.96875 1874.91113,1011.7002 C1870.5166,976.543945 1865.14551,955.054687 1870.5166,913.067383 C1875.88281,871.070313 1900.29688,811.5 1900.29688,806.617188 C1899.80371,802.222656 1894.9209,780.738281 1844.63281,780.25 C1794.34473,779.761719 1750.88281,790.015625 1746,803.199219 C1741.11719,816.382812 1731.35156,846.65625 1725.00391,877.90625 C1716.21484,923.804688 1624.41797,1086.40234 1572.17188,1171.85156 C1555.08203,1138.64844 1540.43359,1109.35156 1537.49902,1085.90918 C1533.10938,1050.75781 1527.7334,1029.26855 1533.10938,987.28125 C1538.48047,945.28418 1562.89453,885.71875 1562.89453,880.835937 C1562.40625,876.441406 1557.52344,854.957031 1507.23535,854.46875 C1456.9375,853.980469 1413.48535,864.234375 1408.60254,877.417969 C1403.71973,890.601562 1398.34863,921.851562 1387.60645,952.125 C1377.34766,982.398438 1255.27734,1253.88281 1223.53906,1324.68359 C1207.42578,1360.81641 1193.27051,1389.625 1183.01172,1409.15625 C1172.75781,1428.6875 1182.52344,1410.62109 1181.54688,1412.57422 C1172.75781,1429.17578 1167.875,1438.45312 1167.875,1438.45312 L1167.875,1438.94629 C1161.03906,1451.15332 1153.71484,1462.86719 1150.29199,1462.86719 C1147.85059,1462.86719 1142.96777,1430.15234 1151.26855,1385.23535 C1169.33496,1290.99219 1213.28027,1144.02441 1212.79688,1138.65332 C1212.79688,1136.21191 1221.09277,1110.32812 1184.47168,1097.14941 C1148.82715,1083.96582 1136.13672,1105.93848 1133.20215,1105.93848 C1130.27246,1105.93848 1127.83105,1113.75098 1127.83105,1113.75098 C1127.83105,1113.75098 1167.38184,948.228516 1052.14746,948.228516 C979.881836,948.228516 880.272461,1026.8418 830.956055,1098.61914 C799.706055,1115.70898 733.299805,1151.83691 662.987305,1190.41602 C636.131836,1205.06445 608.299805,1220.68945 581.932617,1234.84961 L576.566406,1228.98047 C436.917969,1080.05469 178.617188,974.585937 189.359375,774.390625 C193.265625,701.636719 218.65625,509.742188 685.458008,277.320313 C1067.78223,86.890625 1373.93457,139.136719 1427.15234,255.347656 C1502.83594,421.363281 1263.57813,729.957031 866.12207,774.390625 C714.754883,791.480469 635.160156,732.886719 615.145508,710.914062 C594.149414,687.964844 591.219727,686.988281 583.407227,691.382812 C570.711914,698.21875 578.524414,718.726562 583.407227,730.933594 C595.125977,761.695313 643.954102,816.382813 726.961914,843.726562 C799.710938,867.652344 977.450195,880.835938 1192.29395,797.828125 C1433.0166,704.566406 1621.00488,445.777344 1565.8291,229.46875 C1509.67676,9.25390625 1144.44238,-63.0117188 799.227539,59.546875 C593.65625,132.789062 371,247.046875 210.84375,396.949219 C20.4140625,574.683594 -9.859375,729.957031 2.8359375,794.410156 C47.2744141,1024.39062 364.164063,1174.29297 491.117188,1285.13281 C484.769531,1288.5459 478.910156,1291.96387 473.539063,1294.89844 C410.0625,1326.14355 168.363281,1452.61328 107.816406,1586.39746 C39.4570313,1737.76465 118.558594,1846.65625 171.292969,1861.30469 C334.378906,1906.71484 501.371094,1825.17188 591.703125,1690.89453 C681.541992,1556.61719 670.804688,1382.30078 629.300781,1302.71094 L627.831055,1299.78125 L677.635742,1270.48437 C709.867188,1251.44141 741.605469,1233.86328 769.432617,1218.72168 C753.8125,1261.20215 742.577148,1311.49512 736.722656,1384.7373 C729.886719,1470.67969 765.042969,1582.00293 811.429688,1625.94824 C831.9375,1644.98633 856.351562,1645.47949 871.488281,1645.47949 C925.199219,1645.47949 949.613281,1601.04102 976.46875,1547.82324 C1009.67188,1482.88184 1038.96875,1407.68652 1038.96875,1407.68652 C1038.96875,1407.68652 1002.34766,1611.2998 1102.44531,1611.2998 C1139.06641,1611.2998 1175.6875,1563.93652 1192.28906,1539.52246 L1192.28906,1540.01074 C1192.28906,1540.01074 1193.26563,1538.5459 1195.21875,1535.12793 C1197.26751,1532.09859 1199.22158,1529.00627 1201.07812,1525.85547 L1201.07812,1524.87891 C1215.72656,1499.48828 1248.44141,1441.38281 1297.26953,1345.19141 C1360.25293,1221.16797 1420.80469,1065.89453 1420.80469,1065.89453 C1420.80469,1065.89453 1426.66406,1103.98047 1444.73047,1166.48047 C1455.46777,1203.59473 1478.90527,1244.11719 1496.97168,1283.66797 C1482.32324,1304.17578 1473.53418,1315.89941 1473.53418,1315.89941 L1474.02246,1316.3877 C1462.30859,1332.0127 1449.12012,1348.61914 1435.45313,1365.21582 C1385.64844,1424.78613 1326.07813,1492.66211 1318.26563,1512.19336 C1308.98828,1535.1377 1310.94141,1552.22754 1329.00781,1565.9043 C1342.19141,1575.66992 1365.62891,1577.61816 1390.53125,1575.66992 C1435.45313,1572.73535 1466.70313,1561.50977 1482.32813,1554.66895 C1506.74219,1545.87988 1534.57422,1532.69629 1561.42969,1513.16504 C1610.25781,1477.03711 1640.04297,1425.76758 1637.11328,1357.4082 C1635.64844,1319.81055 1623.44141,1282.70117 1608.30469,1247.54492 C1612.69922,1241.19727 1617.09863,1234.84473 1621.48828,1228.01367 C1698.63672,1115.21582 1758.20703,991.197266 1758.20703,991.197266 C1758.20703,991.197266 1764.06641,1029.2832 1782.13281,1091.7832 C1791.40527,1123.52148 1809.96484,1158.19434 1826.56641,1192.37402 C1754.30078,1251.45605 1708.89063,1319.81543 1693.26563,1364.7373 C1664.45703,1447.74512 1686.91797,1485.34277 1729.39844,1494.13184 C1748.43652,1498.03809 1775.78516,1489.24902 1796.28809,1480.45996 C1821.67871,1472.15918 1852.44043,1457.99414 1880.76563,1437.00293 C1929.59375,1400.87012 1976.46875,1350.57715 1974.02734,1282.70605 C1972.5625,1251.45605 1964.26172,1220.69434 1953.03125,1191.39746 C2014.55469,1166.00684 2094.13965,1151.3584 2195.21875,1163.56543 C2412.50391,1188.95605 2455.47266,1324.69824 2447.17676,1381.33887 C2438.87598,1437.98438 2393.46582,1469.22949 2378.32422,1478.99512 C2363.1875,1488.27246 2358.30469,1491.69531 2359.76953,1498.52637 C2361.72266,1508.78516 2368.55859,1508.29199 2381.74219,1506.34375 C2399.80859,1503.40918 2496,1459.95703 2499.90625,1355.46973 C2505.76562,1221.17285 2378.32422,1074.68848 2152.25,1076.14844 L2152.25,1076.14844 Z M476.46875,1641.08984 C404.691406,1719.70313 303.617188,1749.48828 260.648438,1724.09766 C214.261719,1697.24219 232.323242,1581.51953 320.707031,1498.02344 C374.417969,1447.24219 444.242188,1400.36719 490.140625,1371.55859 C500.394531,1365.21094 516.019531,1355.93848 534.574219,1344.70313 C537.503906,1342.75488 539.457031,1341.77344 539.457031,1341.77344 C542.875,1339.82031 546.78125,1337.37891 550.6875,1334.9375 C583.402344,1454.07813 552.152344,1558.57031 476.46875,1641.08984 L476.46875,1641.08984 Z M1001.37109,1284.15625 C976.46875,1345.19141 923.734375,1501.92969 891.996094,1493.14063 C864.647461,1485.81641 848.050781,1367.16406 886.620117,1249.97656 C906.151367,1190.88965 947.655273,1120.58203 972.069336,1093.2334 C1011.625,1049.28809 1054.58887,1034.63965 1065.33594,1052.70605 C1078.03125,1076.14844 1016.99609,1246.07031 1001.37109,1284.15625 Z M1434.47656,1491.1875 C1423.73438,1496.56348 1413.96875,1500.46484 1409.57422,1497.54004 C1406.15625,1495.58691 1413.96387,1488.2627 1413.96387,1488.2627 C1413.96387,1488.2627 1468.16309,1430.15723 1489.64746,1403.30176 C1501.85449,1387.68164 1516.50293,1369.61523 1532.12793,1349.10254 L1532.12793,1354.96191 C1532.13281,1425.26953 1464.75,1472.14453 1434.47656,1491.1875 Z M1768.45605,1415.01562 C1760.64355,1409.15625 1761.625,1391.08984 1787.9873,1334.44922 C1798.24609,1311.98828 1821.67871,1274.39062 1862.20605,1238.74609 C1867.08887,1253.39453 1870.02344,1267.5498 1869.53027,1280.73828 C1869.04688,1368.62891 1806.54688,1401.34375 1768.45605,1415.01562 Z" id="Shape"></path>
        </g>
    </g>
</svg>