<?xml version="1.0" encoding="UTF-8"?>
<svg width="2500px" height="2500px" viewBox="0 0 2500 2500" version="1.1" xmlns="http://www.w3.org/2000/svg" xmlns:xlink="http://www.w3.org/1999/xlink">
    <!-- Generator: Sketch 60 (88103) - https://sketch.com -->
    <title>webstorm-icon</title>
    <desc>Created with Sketch.</desc>
    <defs>
        <linearGradient x1="50.1118649%" y1="28.0516432%" x2="64.8114814%" y2="89.6361502%" id="linearGradient-1">
            <stop stop-color="#BDBDBD" offset="0%"></stop>
            <stop stop-color="#616161" offset="100%"></stop>
        </linearGradient>
        <linearGradient x1="38.2137868%" y1="24.8761017%" x2="46.8041184%" y2="40.8922881%" id="linearGradient-2">
            <stop stop-color="#ECECEC" offset="0%"></stop>
            <stop stop-color="#5E5E5E" offset="100%"></stop>
        </linearGradient>
        <linearGradient x1="47.71328%" y1="-1755.224%" x2="55.48544%" y2="-1798.2395%" id="linearGradient-3">
            <stop stop-color="#C7C7C7" offset="0%"></stop>
            <stop stop-color="#636363" offset="100%"></stop>
        </linearGradient>
    </defs>
    <g id="Page-1" stroke="none" stroke-width="1" fill="none" fill-rule="evenodd">
        <g id="webstorm-icon" fill-rule="nonzero">
            <polygon id="Path" fill="url(#linearGradient-1)" points="335.9375 2257.8125 0 261.71875 625 3.90625 1019.53125 238.28125 1386.71875 42.96875 2144.53125 335.9375 1718.75 2500"></polygon>
            <polygon id="Path" fill="url(#linearGradient-2)" points="2500 847.65625 2175.78125 50.78125 1593.75 0 687.5 867.1875 929.6875 1988.28125 1386.71875 2304.6875 2500 1644.53125 2226.5625 1132.8125"></polygon>
            <polygon id="Path" fill="url(#linearGradient-3)" points="2000 726.5625 2226.5625 1132.8125 2500 847.65625 2300.78125 351.5625 2000 726.5625"></polygon>
            <g id="Group" transform="translate(468.750000, 468.750000)">
                <polygon id="Path" fill="#000000" points="0 0 1562.5 0 1562.5 1562.5 0 1562.5"></polygon>
                <path d="M148.4375,1269.53125 L734.375,1269.53125 L734.375,1367.1875 L148.4375,1367.1875 L148.4375,1269.53125 Z M914.0625,757.8125 L996.09375,656.25 C1054.6875,703.125 1113.28125,734.375 1187.5,734.375 C1246.09375,734.375 1281.25,710.9375 1281.25,671.875 C1281.25,636.71875 1257.8125,617.1875 1152.34375,589.84375 C1023.4375,554.6875 941.40625,519.53125 941.40625,390.625 L941.40625,386.71875 C941.40625,269.53125 1035.15625,191.402865 1164.0625,191.402865 C1250.47647,191.042784 1334.46614,219.957261 1402.34375,273.4375 L1328.125,382.8125 C1280.96499,345.958247 1223.78993,324.177274 1164.0625,320.3125 C1113.28125,320.3125 1082.03125,343.75 1082.03125,378.90625 C1082.03125,421.875 1109.375,437.5 1218.75,464.84375 C1347.65625,500 1421.875,546.875 1421.875,660.15625 C1421.875,789.0625 1324.21875,863.28125 1187.5,863.28125 C1087.14493,859.592086 990.901377,822.469574 914.0625,757.8125 M789.0625,203.125 L691.40625,578.125 L582.03125,203.125 L472.65625,203.125 L363.28125,578.125 L265.625,203.125 L113.28125,203.125 L300.78125,851.5625 L421.875,851.5625 L527.34375,476.5625 L632.8125,851.5625 L753.90625,851.5625 L941.40625,203.125 L789.0625,203.125 Z" id="Shape" fill="#FFFFFF"></path>
            </g>
        </g>
    </g>
</svg>