<?xml version="1.0" encoding="UTF-8"?>
<svg width="20px" height="20px" viewBox="0 0 20 20" version="1.1" xmlns="http://www.w3.org/2000/svg" xmlns:xlink="http://www.w3.org/1999/xlink">
    <!-- Generator: Sketch 60 (88103) - https://sketch.com -->
    <title>Artboard</title>
    <desc>Created with Sketch.</desc>
    <defs>
        <path d="M6.68951613,15.7654798 C6.68951613,15.8436048 6.59677419,15.9061048 6.47983871,15.9061048 C6.34677419,15.9178235 6.25403226,15.8553235 6.25403226,15.7654798 C6.25403226,15.6873548 6.34677419,15.6248548 6.46370968,15.6248548 C6.58467742,15.613136 6.68951613,15.675636 6.68951613,15.7654798 Z M5.43548387,15.5896985 C5.40725806,15.6678235 5.48790323,15.7576673 5.60887097,15.7811048 C5.71370968,15.8201673 5.83467742,15.7811048 5.85887097,15.7029798 C5.88306452,15.6248548 5.80645161,15.535011 5.68548387,15.4998548 C5.58064516,15.472511 5.46370968,15.5115735 5.43548387,15.5896985 Z M7.21774194,15.5232923 C7.10080645,15.550636 7.02016129,15.6248548 7.03225806,15.7146985 C7.04435484,15.7928235 7.14919355,15.8436048 7.27016129,15.816261 C7.38709677,15.7889173 7.46774194,15.7146985 7.45564516,15.6365735 C7.44354839,15.5623548 7.33467742,15.5115735 7.21774194,15.5232923 Z M9.87096774,0.554542272 C4.27822581,0.554542272 0,4.66782352 0,10.0857923 C0,14.4178235 2.81451613,18.1248548 6.83467742,19.4295423 C7.35080645,19.519386 7.53225806,19.2107923 7.53225806,18.956886 C7.53225806,18.7146985 7.52016129,17.378761 7.52016129,16.5584485 C7.52016129,16.5584485 4.69758065,17.144386 4.10483871,15.394386 C4.10483871,15.394386 3.64516129,14.2576673 2.98387097,13.9646985 C2.98387097,13.9646985 2.06048387,13.3514173 3.0483871,13.363136 C3.0483871,13.363136 4.05241935,13.441261 4.60483871,14.3709485 C5.48790323,15.878761 6.96774194,15.4451673 7.54435484,15.1873548 C7.63709677,14.5623548 7.89919355,14.128761 8.18951613,13.8709485 C5.93548387,13.628761 3.66129032,13.3123548 3.66129032,9.55454227 C3.66129032,8.48032352 3.96774194,7.94126102 4.61290323,7.25376102 C4.50806452,6.99985477 4.16532258,5.95297977 4.71774194,4.60141727 C5.56048387,4.34751102 7.5,5.65610477 7.5,5.65610477 C8.30645161,5.43735477 9.1733871,5.32407352 10.0322581,5.32407352 C10.891129,5.32407352 11.7580645,5.43735477 12.5645161,5.65610477 C12.5645161,5.65610477 14.5040323,4.34360477 15.3467742,4.60141727 C15.8991935,5.95688602 15.5564516,6.99985477 15.4516129,7.25376102 C16.0967742,7.94516727 16.4919355,8.48422977 16.4919355,9.55454227 C16.4919355,13.3240735 14.1169355,13.6248548 11.8629032,13.8709485 C12.233871,14.1795423 12.5483871,14.7654798 12.5483871,15.6834485 C12.5483871,16.9998548 12.5362903,18.628761 12.5362903,18.9490735 C12.5362903,19.2029798 12.7217742,19.5115735 13.233871,19.4217298 C17.266129,18.1248548 20,14.4178235 20,10.0857923 C20,4.66782352 15.4637097,0.554542272 9.87096774,0.554542272 Z M3.91935484,14.0271985 C3.86693548,14.066261 3.87903226,14.1561048 3.94758065,14.2303235 C4.01209677,14.2928235 4.10483871,14.3201673 4.15725806,14.269386 C4.20967742,14.2303235 4.19758065,14.1404798 4.12903226,14.066261 C4.06451613,14.003761 3.97177419,13.9764173 3.91935484,14.0271985 Z M3.48387097,13.7107923 C3.45564516,13.7615735 3.49596774,13.8240735 3.5766129,13.863136 C3.64112903,13.9021985 3.72177419,13.8904798 3.75,13.8357923 C3.77822581,13.785011 3.73790323,13.722511 3.65725806,13.6834485 C3.5766129,13.660011 3.51209677,13.6717298 3.48387097,13.7107923 Z M4.79032258,15.1014173 C4.72580645,15.1521985 4.75,15.269386 4.84274194,15.3436048 C4.93548387,15.4334485 5.05241935,15.4451673 5.10483871,15.3826673 C5.15725806,15.331886 5.13306452,15.2146985 5.05241935,15.1404798 C4.96370968,15.050636 4.84274194,15.0389173 4.79032258,15.1014173 Z M4.33064516,14.5271985 C4.26612903,14.566261 4.26612903,14.6678235 4.33064516,14.7576673 C4.39516129,14.847511 4.50403226,14.8865735 4.55645161,14.847511 C4.62096774,14.7967298 4.62096774,14.6951673 4.55645161,14.6053235 C4.5,14.5154798 4.39516129,14.4764173 4.33064516,14.5271985 Z" id="path-1"></path>
    </defs>
    <g id="Artboard" stroke="none" stroke-width="1" fill="none" fill-rule="evenodd">
        <g id="Icons/Brands/github">
            <mask id="mask-2" fill="white">
                <use xlink:href="#path-1"></use>
            </mask>
            <use id="github" fill="#000000" fill-rule="nonzero" xlink:href="#path-1"></use>
        </g>
    </g>
</svg>