<?xml version="1.0" encoding="UTF-8"?>
<svg width="25px" height="25px" viewBox="0 0 25 25" version="1.1" xmlns="http://www.w3.org/2000/svg" xmlns:xlink="http://www.w3.org/1999/xlink">
    <!-- Generator: Sketch 60 (88103) - https://sketch.com -->
    <title>email</title>
    <desc>Created with Sketch.</desc>
    <defs>
        <path d="M24.5263672,9.31640625 C24.7167969,9.16503906 25,9.30664063 25,9.54589844 L25,19.53125 C25,20.8251953 23.9501953,21.875 22.65625,21.875 L2.34375,21.875 C1.04980469,21.875 0,20.8251953 0,19.53125 L0,9.55078125 C0,9.30664063 0.278320312,9.16992188 0.473632812,9.32128906 C1.56738281,10.1708984 3.01757812,11.25 7.99804687,14.8681641 C9.02832031,15.6201172 10.7666016,17.2021484 12.5,17.1923828 C14.2431641,17.2070313 16.015625,15.5908203 17.0068359,14.8681641 C21.9873047,11.25 23.4326172,10.1660156 24.5263672,9.31640625 Z M12.5,15.625 C13.6328125,15.6445313 15.2636719,14.1992188 16.0839844,13.6035156 C22.5634766,8.90136719 23.0566406,8.49121094 24.5507812,7.31933594 C24.8339844,7.09960938 25,6.7578125 25,6.39648438 L25,5.46875 C25,4.17480469 23.9501953,3.125 22.65625,3.125 L2.34375,3.125 C1.04980469,3.125 0,4.17480469 0,5.46875 L0,6.39648437 C0,6.7578125 0.166015625,7.09472656 0.44921875,7.31933594 C1.94335938,8.48632812 2.43652344,8.90136719 8.91601563,13.6035156 C9.73632813,14.1992188 11.3671875,15.6445313 12.5,15.625 Z" id="path-1"></path>
    </defs>
    <g id="email" stroke="none" stroke-width="1" fill="none" fill-rule="evenodd">
        <g id="Solid/envelope">
            <mask id="mask-2" fill="white">
                <use xlink:href="#path-1"></use>
            </mask>
            <g id="Mask"></g>
            <g id="Color/Black" mask="url(#mask-2)" fill="#242A42" fill-rule="evenodd">
                <rect id="Black" x="0" y="0" width="25" height="25"></rect>
            </g>
        </g>
    </g>
</svg>